<?xml version="1.0" encoding="UTF-8" standalone="no"?>
<!-- Created with Inkscape (http://www.inkscape.org/) -->

<svg
   xmlns:dc="http://purl.org/dc/elements/1.1/"
   xmlns:cc="http://creativecommons.org/ns#"
   xmlns:rdf="http://www.w3.org/1999/02/22-rdf-syntax-ns#"
   xmlns:svg="http://www.w3.org/2000/svg"
   xmlns="http://www.w3.org/2000/svg"
   xmlns:sodipodi="http://sodipodi.sourceforge.net/DTD/sodipodi-0.dtd"
   xmlns:inkscape="http://www.inkscape.org/namespaces/inkscape"
   width="744.09448819"
   height="1052.3622047"
   id="svg2"
   version="1.1"
   inkscape:version="0.47 r22583"
   sodipodi:docname="gtd_mod.svg">
  <defs
     id="defs4">
    <inkscape:perspective
       sodipodi:type="inkscape:persp3d"
       inkscape:vp_x="0 : 526.18109 : 1"
       inkscape:vp_y="0 : 1000 : 0"
       inkscape:vp_z="744.09448 : 526.18109 : 1"
       inkscape:persp3d-origin="372.04724 : 350.78739 : 1"
       id="perspective10" />
    <inkscape:perspective
       id="perspective3619"
       inkscape:persp3d-origin="0.5 : 0.33333333 : 1"
       inkscape:vp_z="1 : 0.5 : 1"
       inkscape:vp_y="0 : 1000 : 0"
       inkscape:vp_x="0 : 0.5 : 1"
       sodipodi:type="inkscape:persp3d" />
    <inkscape:perspective
       id="perspective3619-8"
       inkscape:persp3d-origin="0.5 : 0.33333333 : 1"
       inkscape:vp_z="1 : 0.5 : 1"
       inkscape:vp_y="0 : 1000 : 0"
       inkscape:vp_x="0 : 0.5 : 1"
       sodipodi:type="inkscape:persp3d" />
    <inkscape:perspective
       id="perspective3619-9"
       inkscape:persp3d-origin="0.5 : 0.33333333 : 1"
       inkscape:vp_z="1 : 0.5 : 1"
       inkscape:vp_y="0 : 1000 : 0"
       inkscape:vp_x="0 : 0.5 : 1"
       sodipodi:type="inkscape:persp3d" />
    <inkscape:perspective
       id="perspective3619-0"
       inkscape:persp3d-origin="0.5 : 0.33333333 : 1"
       inkscape:vp_z="1 : 0.5 : 1"
       inkscape:vp_y="0 : 1000 : 0"
       inkscape:vp_x="0 : 0.5 : 1"
       sodipodi:type="inkscape:persp3d" />
    <inkscape:perspective
       id="perspective3668"
       inkscape:persp3d-origin="0.5 : 0.33333333 : 1"
       inkscape:vp_z="1 : 0.5 : 1"
       inkscape:vp_y="0 : 1000 : 0"
       inkscape:vp_x="0 : 0.5 : 1"
       sodipodi:type="inkscape:persp3d" />
    <inkscape:perspective
       id="perspective3668-5"
       inkscape:persp3d-origin="0.5 : 0.33333333 : 1"
       inkscape:vp_z="1 : 0.5 : 1"
       inkscape:vp_y="0 : 1000 : 0"
       inkscape:vp_x="0 : 0.5 : 1"
       sodipodi:type="inkscape:persp3d" />
  </defs>
  <sodipodi:namedview
     id="base"
     pagecolor="#ffffff"
     bordercolor="#666666"
     borderopacity="1.0"
     inkscape:pageopacity="0.0"
     inkscape:pageshadow="2"
     inkscape:zoom="0.98994949"
     inkscape:cx="344.40566"
     inkscape:cy="560.13188"
     inkscape:document-units="px"
     inkscape:current-layer="layer1"
     showgrid="false"
     inkscape:window-width="1360"
     inkscape:window-height="747"
     inkscape:window-x="0"
     inkscape:window-y="15"
     inkscape:window-maximized="0" />
  <metadata
     id="metadata7">
    <rdf:RDF>
      <cc:Work
         rdf:about="">
        <dc:format>image/svg+xml</dc:format>
        <dc:type
           rdf:resource="http://purl.org/dc/dcmitype/StillImage" />
        <dc:title></dc:title>
      </cc:Work>
    </rdf:RDF>
  </metadata>
  <g
     inkscape:label="Layer 1"
     inkscape:groupmode="layer"
     id="layer1">
    <path
       sodipodi:type="arc"
       style="opacity:1;fill:none;stroke:#000000;stroke-width:4;stroke-miterlimit:3.9;stroke-dasharray:8,4,2,4;stroke-dashoffset:0"
       id="path3609"
       sodipodi:cx="244.28572"
       sodipodi:cy="155.21933"
       sodipodi:rx="72.85714"
       sodipodi:ry="42.857143"
       d="m 317.14286,155.21933 a 72.85714,42.857143 0 1 1 -145.71428,0 72.85714,42.857143 0 1 1 145.71428,0 z" />
    <path
       transform="matrix(1.2533025,0,0,0.99456503,263.05706,299.83402)"
       sodipodi:type="arc"
       style="fill:none;stroke:#000000;stroke-width:4;stroke-miterlimit:3.9000001;stroke-dasharray:8, 4, 2, 4;stroke-dashoffset:0"
       id="path3609-1"
       sodipodi:cx="244.28572"
       sodipodi:cy="155.21933"
       sodipodi:rx="72.85714"
       sodipodi:ry="42.857143"
       d="m 317.14286,155.21933 a 72.85714,42.857143 0 1 1 -145.71428,0 72.85714,42.857143 0 1 1 145.71428,0 z" />
    <path
       transform="matrix(1.712749,0,0,0.98602141,165.46806,464.94701)"
       sodipodi:type="arc"
       style="fill:none;stroke:#000000;stroke-width:4;stroke-miterlimit:3.9000001;stroke-dasharray:8, 4, 2, 4;stroke-dashoffset:0"
       id="path3609-7"
       sodipodi:cx="244.28572"
       sodipodi:cy="155.21933"
       sodipodi:rx="72.85714"
       sodipodi:ry="42.857143"
       d="m 317.14286,155.21933 a 72.85714,42.857143 0 1 1 -145.71428,0 72.85714,42.857143 0 1 1 145.71428,0 z" />
    <path
       transform="matrix(1.8912359,0,0,0.9830363,-105.41808,548.24286)"
       sodipodi:type="arc"
       style="fill:none;stroke:#000000;stroke-width:4;stroke-miterlimit:3.9000001;stroke-dasharray:8, 4, 2, 4;stroke-dashoffset:0"
       id="path3609-2"
       sodipodi:cx="244.28572"
       sodipodi:cy="155.21933"
       sodipodi:rx="72.85714"
       sodipodi:ry="42.857143"
       d="m 317.14286,155.21933 a 72.85714,42.857143 0 1 1 -145.71428,0 72.85714,42.857143 0 1 1 145.71428,0 z" />
    <path
       transform="matrix(2.1341056,0,0,2.0912364,-342.53452,37.322609)"
       sodipodi:type="arc"
       style="fill:none;stroke:#000000;stroke-width:4;stroke-miterlimit:3.9000001;stroke-dasharray:none;stroke-dashoffset:0"
       id="path3609-23"
       sodipodi:cx="244.28572"
       sodipodi:cy="155.21933"
       sodipodi:rx="72.85714"
       sodipodi:ry="42.857143"
       d="m 317.14286,155.21933 a 72.85714,42.857143 0 1 1 -145.71428,0 72.85714,42.857143 0 1 1 145.71428,0 z" />
    <path
       transform="matrix(1.8294417,0,0,0.98405214,-44.360693,364.23742)"
       sodipodi:type="arc"
       style="fill:none;stroke:#000000;stroke-width:4;stroke-miterlimit:3.9000001;stroke-dasharray:none;stroke-dashoffset:0"
       id="path3609-23-7"
       sodipodi:cx="244.28572"
       sodipodi:cy="155.21933"
       sodipodi:rx="72.85714"
       sodipodi:ry="42.857143"
       d="m 317.14286,155.21933 a 72.85714,42.857143 0 1 1 -145.71428,0 72.85714,42.857143 0 1 1 145.71428,0 z" />
    <path
       transform="matrix(2.2347106,0,0,0.97768757,-381.25303,463.21012)"
       sodipodi:type="arc"
       style="fill:none;stroke:#000000;stroke-width:4;stroke-miterlimit:3.9000001;stroke-dasharray:none;stroke-dashoffset:0"
       id="path3609-23-9"
       sodipodi:cx="244.28572"
       sodipodi:cy="155.21933"
       sodipodi:rx="72.85714"
       sodipodi:ry="42.857143"
       d="m 317.14286,155.21933 a 72.85714,42.857143 0 1 1 -145.71428,0 72.85714,42.857143 0 1 1 145.71428,0 z" />
    <text
       xml:space="preserve"
       style="font-size:40px;font-style:normal;font-weight:normal;fill:#000000;fill-opacity:1;stroke:none;font-family:Bitstream Vera Sans"
       x="191.92899"
       y="171.50917"
       id="text3691"><tspan
         sodipodi:role="line"
         id="tspan3693"
         x="191.92899"
         y="171.50917">Inbox</tspan></text>
    <text
       xml:space="preserve"
       style="font-size:40px;font-style:normal;font-weight:normal;fill:#000000;fill-opacity:1;stroke:none;font-family:Bitstream Vera Sans"
       x="76.771591"
       y="347.2757"
       id="text3695"><tspan
         sodipodi:role="line"
         id="tspan3697"
         x="76.771591"
         y="347.2757">Someday</tspan></text>
    <text
       xml:space="preserve"
       style="font-size:40px;font-style:normal;font-weight:normal;fill:#000000;fill-opacity:1;stroke:none;font-family:Bitstream Vera Sans"
       x="87.88327"
       y="400.81378"
       id="text3699"><tspan
         sodipodi:role="line"
         id="tspan3701"
         x="87.88327"
         y="400.81378">Calendar</tspan></text>
    <path
       sodipodi:type="inkscape:offset"
       inkscape:radius="0"
       inkscape:original="M 503.375 435.78125 C 498.96093 435.78128 495.47655 437.13545 492.9375 439.84375 C 490.39843 442.53909 489.125 446.21877 489.125 450.90625 C 489.125 455.58074 490.39843 459.29167 492.9375 462 C 495.47655 464.69531 498.96093 466.03125 503.375 466.03125 C 505.09373 466.03125 506.71352 465.78125 508.25 465.3125 C 509.79946 464.84375 511.27602 464.15625 512.65625 463.21875 L 512.65625 459.09375 C 511.3281 460.33073 509.91664 461.26303 508.40625 461.875 C 506.90883 462.48698 505.31769 462.78125 503.625 462.78125 C 500.29165 462.78125 497.73957 461.78125 495.96875 459.75 C 494.19791 457.70574 493.31249 454.74741 493.3125 450.90625 C 493.31249 447.0521 494.19791 444.12502 495.96875 442.09375 C 497.73957 440.0495 500.29165 439.03128 503.625 439.03125 C 505.31769 439.03128 506.90883 439.32555 508.40625 439.9375 C 509.91664 440.5495 511.3281 441.48179 512.65625 442.71875 L 512.65625 438.5625 C 511.30206 437.63805 509.86196 436.92451 508.3125 436.46875 C 506.77602 436.00003 505.11977 435.78128 503.375 435.78125 z M 568.40625 437.375 L 568.40625 443.59375 L 565.78125 443.59375 L 565.78125 446.375 L 568.40625 446.375 L 568.40625 458.25 C 568.40625 460.98438 568.94531 462.86459 570 463.90625 C 571.05468 464.9349 572.97655 465.46875 575.75 465.46875 L 579.4375 465.46875 L 579.4375 462.46875 L 575.75 462.46875 C 574.25259 462.46875 573.24478 462.19532 572.75 461.6875 C 572.26822 461.17969 572.03124 460.03386 572.03125 458.25 L 572.03125 446.375 L 579.4375 446.375 L 579.4375 443.59375 L 572.03125 443.59375 L 572.03125 437.375 L 568.40625 437.375 z M 631.6875 437.375 L 631.6875 443.59375 L 629.0625 443.59375 L 629.0625 446.375 L 631.6875 446.375 L 631.6875 458.25 C 631.6875 460.98438 632.22656 462.86459 633.28125 463.90625 C 634.33593 464.9349 636.2578 465.46875 639.03125 465.46875 L 642.71875 465.46875 L 642.71875 462.46875 L 639.03125 462.46875 C 637.53384 462.46875 636.52603 462.19532 636.03125 461.6875 C 635.54947 461.17969 635.31249 460.03386 635.3125 458.25 L 635.3125 446.375 L 642.71875 446.375 L 642.71875 443.59375 L 635.3125 443.59375 L 635.3125 437.375 L 631.6875 437.375 z M 527.09375 443.0625 C 523.95572 443.06252 521.5026 444.06252 519.71875 446.09375 C 517.94791 448.12502 517.0625 450.93751 517.0625 454.53125 C 517.0625 458.11199 517.94791 460.92448 519.71875 462.96875 C 521.5026 465 523.95572 466.03125 527.09375 466.03125 C 530.21873 466.03125 532.68488 465 534.46875 462.96875 C 536.25258 460.92448 537.15623 458.11199 537.15625 454.53125 C 537.15623 450.93751 536.25258 448.12502 534.46875 446.09375 C 532.68488 444.06252 530.21873 443.06252 527.09375 443.0625 z M 553.625 443.0625 C 552.10155 443.06252 550.76561 443.38023 549.59375 444.03125 C 548.43489 444.68231 547.42187 445.68492 546.5625 447 L 546.5625 443.59375 L 542.9375 443.59375 L 542.9375 465.46875 L 546.5625 465.46875 L 546.5625 453.09375 C 546.56249 450.95835 547.1302 449.26825 548.25 448.03125 C 549.36978 446.79429 550.90363 446.18752 552.84375 446.1875 C 554.45832 446.18752 555.66144 446.69012 556.46875 447.71875 C 557.27602 448.74741 557.68748 450.3047 557.6875 452.375 L 557.6875 465.46875 L 561.28125 465.46875 L 561.28125 452.25 C 561.28123 449.22918 560.63279 446.95575 559.34375 445.40625 C 558.05467 443.84377 556.138 443.06252 553.625 443.0625 z M 593.34375 443.0625 C 590.06249 443.06252 587.4401 444.1094 585.5 446.21875 C 583.57291 448.31512 582.625 451.16929 582.625 454.75 C 582.625 458.21355 583.625 460.9375 585.65625 462.96875 C 587.70051 465 590.47916 466.03125 593.96875 466.03125 C 595.36196 466.03125 596.73957 465.88021 598.09375 465.59375 C 599.4479 465.30729 600.77342 464.89063 602.0625 464.34375 L 602.0625 460.9375 C 600.78644 461.61459 599.48956 462.13021 598.1875 462.46875 C 596.89842 462.80729 595.56769 462.96875 594.1875 462.96875 C 591.80468 462.96875 589.93489 462.35157 588.59375 461.0625 C 587.26562 459.76042 586.53124 457.84897 586.375 455.375 L 602.875 455.375 L 602.875 453.625 C 602.87498 450.36981 602.03123 447.79429 600.3125 445.90625 C 598.60675 444.00523 596.28644 443.06252 593.34375 443.0625 z M 606.1875 443.59375 L 613.96875 454.03125 L 605.46875 465.46875 L 609.71875 465.46875 L 616.0625 456.875 L 622.4375 465.46875 L 626.6875 465.46875 L 618.34375 454.21875 L 626.28125 443.59375 L 622.03125 443.59375 L 616.21875 451.375 L 610.4375 443.59375 L 606.1875 443.59375 z M 527.09375 446.09375 C 529.0078 446.09377 530.53644 446.88283 531.65625 448.40625 C 532.77602 449.91668 533.34373 451.94012 533.34375 454.53125 C 533.34373 457.13542 532.77602 459.20834 531.65625 460.71875 C 530.53644 462.22917 529.0078 462.96875 527.09375 462.96875 C 525.15364 462.96875 523.65103 462.2474 522.53125 460.75 C 521.42447 459.23959 520.84374 457.14845 520.84375 454.53125 C 520.84374 451.91408 521.41145 449.87241 522.53125 448.375 C 523.65103 446.8646 525.16666 446.09377 527.09375 446.09375 z M 593.375 446.09375 C 595.14582 446.09377 596.55728 446.70314 597.625 447.875 C 598.70571 449.04689 599.25519 450.59637 599.28125 452.5625 L 586.46875 452.59375 C 586.65104 450.53647 587.36458 448.94533 588.5625 447.8125 C 589.77343 446.67971 591.36978 446.09377 593.375 446.09375 z "
       style="font-size:40px;font-style:normal;font-weight:normal;fill:#000000;fill-opacity:1;stroke:none;font-family:Bitstream Vera Sans"
       id="path3711"
       d="m 503.375,435.78125 c -4.41407,3e-5 -7.89845,1.3542 -10.4375,4.0625 -2.53907,2.69534 -3.8125,6.37502 -3.8125,11.0625 0,4.67449 1.27343,8.38542 3.8125,11.09375 2.53905,2.69531 6.02343,4.03125 10.4375,4.03125 1.71873,0 3.33852,-0.25 4.875,-0.71875 1.54946,-0.46875 3.02602,-1.15625 4.40625,-2.09375 l 0,-4.125 c -1.32815,1.23698 -2.73961,2.16928 -4.25,2.78125 -1.49742,0.61198 -3.08856,0.90625 -4.78125,0.90625 -3.33335,0 -5.88543,-1 -7.65625,-3.03125 -1.77084,-2.04426 -2.65626,-5.00259 -2.65625,-8.84375 -10e-6,-3.85415 0.88541,-6.78123 2.65625,-8.8125 1.77082,-2.04425 4.3229,-3.06247 7.65625,-3.0625 1.69269,3e-5 3.28383,0.2943 4.78125,0.90625 1.51039,0.612 2.92185,1.54429 4.25,2.78125 l 0,-4.15625 c -1.35419,-0.92445 -2.79429,-1.63799 -4.34375,-2.09375 -1.53648,-0.46872 -3.19273,-0.68747 -4.9375,-0.6875 z m 65.03125,1.59375 0,6.21875 -2.625,0 0,2.78125 2.625,0 0,11.875 c 0,2.73438 0.53906,4.61459 1.59375,5.65625 1.05468,1.02865 2.97655,1.5625 5.75,1.5625 l 3.6875,0 0,-3 -3.6875,0 c -1.49741,0 -2.50522,-0.27343 -3,-0.78125 -0.48178,-0.50781 -0.71876,-1.65364 -0.71875,-3.4375 l 0,-11.875 7.40625,0 0,-2.78125 -7.40625,0 0,-6.21875 -3.625,0 z m 63.28125,0 0,6.21875 -2.625,0 0,2.78125 2.625,0 0,11.875 c 0,2.73438 0.53906,4.61459 1.59375,5.65625 1.05468,1.02865 2.97655,1.5625 5.75,1.5625 l 3.6875,0 0,-3 -3.6875,0 c -1.49741,0 -2.50522,-0.27343 -3,-0.78125 -0.48178,-0.50781 -0.71876,-1.65364 -0.71875,-3.4375 l 0,-11.875 7.40625,0 0,-2.78125 -7.40625,0 0,-6.21875 -3.625,0 z m -104.59375,5.6875 c -3.13803,2e-5 -5.59115,1.00002 -7.375,3.03125 -1.77084,2.03127 -2.65625,4.84376 -2.65625,8.4375 0,3.58074 0.88541,6.39323 2.65625,8.4375 1.78385,2.03125 4.23697,3.0625 7.375,3.0625 3.12498,0 5.59113,-1.03125 7.375,-3.0625 1.78383,-2.04427 2.68748,-4.85676 2.6875,-8.4375 -2e-5,-3.59374 -0.90367,-6.40623 -2.6875,-8.4375 -1.78387,-2.03123 -4.25002,-3.03123 -7.375,-3.03125 z m 26.53125,0 c -1.52345,2e-5 -2.85939,0.31773 -4.03125,0.96875 -1.15886,0.65106 -2.17188,1.65367 -3.03125,2.96875 l 0,-3.40625 -3.625,0 0,21.875 3.625,0 0,-12.375 c -10e-6,-2.1354 0.5677,-3.8255 1.6875,-5.0625 1.11978,-1.23696 2.65363,-1.84373 4.59375,-1.84375 1.61457,2e-5 2.81769,0.50262 3.625,1.53125 0.80727,1.02866 1.21873,2.58595 1.21875,4.65625 l 0,13.09375 3.59375,0 0,-13.21875 c -2e-5,-3.02082 -0.64846,-5.29425 -1.9375,-6.84375 -1.28908,-1.56248 -3.20575,-2.34373 -5.71875,-2.34375 z m 39.71875,0 c -3.28126,2e-5 -5.90365,1.0469 -7.84375,3.15625 -1.92709,2.09637 -2.875,4.95054 -2.875,8.53125 0,3.46355 1,6.1875 3.03125,8.21875 2.04426,2.03125 4.82291,3.0625 8.3125,3.0625 1.39321,0 2.77082,-0.15104 4.125,-0.4375 1.35415,-0.28646 2.67967,-0.70312 3.96875,-1.25 l 0,-3.40625 c -1.27606,0.67709 -2.57294,1.19271 -3.875,1.53125 -1.28908,0.33854 -2.61981,0.5 -4,0.5 -2.38282,0 -4.25261,-0.61718 -5.59375,-1.90625 -1.32813,-1.30208 -2.06251,-3.21353 -2.21875,-5.6875 l 16.5,0 0,-1.75 c -2e-5,-3.25519 -0.84377,-5.83071 -2.5625,-7.71875 -1.70575,-1.90102 -4.02606,-2.84373 -6.96875,-2.84375 z m 12.84375,0.53125 7.78125,10.4375 -8.5,11.4375 4.25,0 6.34375,-8.59375 6.375,8.59375 4.25,0 -8.34375,-11.25 7.9375,-10.625 -4.25,0 -5.8125,7.78125 -5.78125,-7.78125 -4.25,0 z m -79.09375,2.5 c 1.91405,2e-5 3.44269,0.78908 4.5625,2.3125 1.11977,1.51043 1.68748,3.53387 1.6875,6.125 -2e-5,2.60417 -0.56773,4.67709 -1.6875,6.1875 -1.11981,1.51042 -2.64845,2.25 -4.5625,2.25 -1.94011,0 -3.44272,-0.72135 -4.5625,-2.21875 -1.10678,-1.51041 -1.68751,-3.60155 -1.6875,-6.21875 -10e-6,-2.61717 0.5677,-4.65884 1.6875,-6.15625 1.11978,-1.5104 2.63541,-2.28123 4.5625,-2.28125 z m 66.28125,0 c 1.77082,2e-5 3.18228,0.60939 4.25,1.78125 1.08071,1.17189 1.63019,2.72137 1.65625,4.6875 l -12.8125,0.0313 c 0.18229,-2.05728 0.89583,-3.64842 2.09375,-4.78125 1.21093,-1.13279 2.80728,-1.71873 4.8125,-1.71875 z" />
    <text
       xml:space="preserve"
       style="font-size:40px;font-style:normal;font-weight:normal;fill:#000000;fill-opacity:1;stroke:none;font-family:Bitstream Vera Sans"
       x="476.79199"
       y="630.11841"
       id="text3713"><tspan
         sodipodi:role="line"
         id="tspan3715"
         x="476.79199"
         y="630.11841">Waiting for</tspan></text>
    <text
       xml:space="preserve"
       style="font-size:40px;font-style:normal;font-weight:normal;fill:#000000;fill-opacity:1;stroke:none;font-family:Bitstream Vera Sans"
       x="236.3757"
       y="709.92047"
       id="text3717"><tspan
         sodipodi:role="line"
         id="tspan3719"
         x="236.3757"
         y="709.92047">Week goals</tspan></text>
    <text
       xml:space="preserve"
       style="font-size:40px;font-style:normal;font-weight:normal;fill:#000000;fill-opacity:1;stroke:none;font-family:Bitstream Vera Sans"
       x="286.88333"
       y="530.11334"
       id="text3721"><tspan
         sodipodi:role="line"
         id="tspan3723"
         x="286.88333"
         y="530.11334">Project web</tspan></text>
    <text
       xml:space="preserve"
       style="font-size:40px;font-style:normal;font-weight:normal;fill:#000000;fill-opacity:1;stroke:none;font-family:Bitstream Vera Sans"
       x="19.192896"
       y="626.07782"
       id="text3725"><tspan
         sodipodi:role="line"
         id="tspan3727"
         x="19.192896"
         y="626.07782">Weekly report</tspan></text>
    <text
       xml:space="preserve"
       style="font-size:40px;font-style:normal;font-weight:normal;fill:#000000;fill-opacity:1;stroke:none;font-family:Bitstream Vera Sans"
       x="196.97975"
       y="241.20969"
       id="text3729"><tspan
         sodipodi:role="line"
         id="tspan3731"
         x="196.97975"
         y="241.20969">What to do?</tspan></text>
    <text
       xml:space="preserve"
       style="font-size:40px;font-style:normal;font-weight:normal;fill:#000000;fill-opacity:1;stroke:none;font-family:Bitstream Vera Sans"
       x="479.82245"
       y="81.605583"
       id="text3733"><tspan
         sodipodi:role="line"
         id="tspan3735"
         x="479.82245"
         y="81.605583">Trash</tspan></text>
    <text
       xml:space="preserve"
       style="font-size:40px;font-style:normal;font-weight:normal;fill:#000000;fill-opacity:1;stroke:none;font-family:Bitstream Vera Sans"
       x="532.3504"
       y="172.51932"
       id="text3737"><tspan
         sodipodi:role="line"
         id="tspan3739"
         x="532.3504"
         y="172.51932">Reference</tspan></text>
    <text
       xml:space="preserve"
       style="font-size:40px;font-style:normal;font-weight:normal;fill:#000000;fill-opacity:1;stroke:none;font-family:Bitstream Vera Sans"
       x="485.88336"
       y="328.08282"
       id="text3741"><tspan
         sodipodi:role="line"
         id="tspan3743"
         x="485.88336"
         y="328.08282">Next Action</tspan><tspan
         sodipodi:role="line"
         x="485.88336"
         y="378.08282"
         id="tspan3745">definition</tspan></text>
    <text
       xml:space="preserve"
       style="font-size:40px;font-style:normal;font-weight:normal;fill:#000000;fill-opacity:1;stroke:none;font-family:Bitstream Vera Sans"
       x="601.04077"
       y="250.30106"
       id="text3747"><tspan
         sodipodi:role="line"
         id="tspan3749"
         x="601.04077"
         y="250.30106">Do</tspan></text>
    <path
       style="fill:none;stroke:#000000;stroke-width:1px;stroke-linecap:butt;stroke-linejoin:miter;stroke-opacity:1"
       d="M 80.812204,0.79338291 181.82746,105.84925"
       id="path3751" />
    <path
       style="fill:none;stroke:#000000;stroke-width:1px;stroke-linecap:butt;stroke-linejoin:miter;stroke-opacity:1"
       d="m 324.25897,172.51932 19.1929,34.34518"
       id="path3753" />
    <path
       style="fill:none;stroke:#000000;stroke-width:1px;stroke-linecap:butt;stroke-linejoin:miter;stroke-opacity:1"
       d="M 391.93919,206.8645 485.88337,87.666502"
       id="path3755" />
    <path
       style="fill:none;stroke:#000000;stroke-width:1px;stroke-linecap:butt;stroke-linejoin:miter;stroke-opacity:1"
       d="m 441.43666,231.10816 83.84266,-70.71067"
       id="path3757" />
    <path
       style="fill:none;stroke:#000000;stroke-width:1px;stroke-linecap:butt;stroke-linejoin:miter;stroke-opacity:1"
       d="m 320.21836,248.28076 -37.37565,38.38579"
       id="path3759" />
    <path
       style="fill:none;stroke:#000000;stroke-width:1px;stroke-linecap:butt;stroke-linejoin:miter;stroke-opacity:1"
       d="m 401.03056,248.28076 82.83251,87.88327"
       id="path3761" />
    <path
       style="fill:none;stroke:#000000;stroke-width:1px;stroke-linecap:butt;stroke-linejoin:miter;stroke-opacity:1"
       d="m 622.25397,287.67671 6.06091,-27.27412"
       id="path3763" />
    <path
       style="fill:none;stroke:#000000;stroke-width:1px;stroke-linecap:butt;stroke-linejoin:miter;stroke-opacity:1"
       d="m 613.1626,387.68181 -5.05077,25.25381"
       id="path3765" />
    <path
       style="fill:none;stroke:#000000;stroke-width:1px;stroke-linecap:butt;stroke-linejoin:miter;stroke-opacity:1"
       d="m 674.7819,384.65135 8.08122,196.97975"
       id="path3767" />
    <path
       style="fill:none;stroke:#000000;stroke-width:1px;stroke-linecap:butt;stroke-linejoin:miter;stroke-opacity:1"
       d="M 483.86307,364.4483 398.0001,467.48386"
       id="path3769" />
    <path
       style="fill:none;stroke:#000000;stroke-width:1px;stroke-linecap:butt;stroke-linejoin:miter;stroke-opacity:1"
       d="m 394.96965,563.44835 -17.1726,89.90358"
       id="path3771" />
    <path
       style="fill:none;stroke:#000000;stroke-width:1px;stroke-linecap:butt;stroke-linejoin:miter;stroke-opacity:1"
       d="M 208.09142,686.68696 178.797,663.45345"
       id="path3773" />
    <text
       xml:space="preserve"
       style="font-size:19.33465385px;font-style:normal;font-weight:normal;fill:#000000;fill-opacity:1;stroke:none;font-family:Bitstream Vera Sans"
       x="-53.721382"
       y="633.07971"
       id="text3775"
       transform="matrix(0.74501502,-0.76714162,0.67084008,0.6514911,0,0)"><tspan
         sodipodi:role="line"
         id="tspan3777"
         x="-53.721382"
         y="633.07971">incomplete</tspan></text>
  </g>
</svg>
